<?xml version="1.0" encoding="UTF-8" standalone="no"?>
<!-- Created with Inkscape (http://www.inkscape.org/) -->

<svg
   xmlns:dc="http://purl.org/dc/elements/1.1/"
   xmlns:cc="http://creativecommons.org/ns#"
   xmlns:rdf="http://www.w3.org/1999/02/22-rdf-syntax-ns#"
   xmlns:svg="http://www.w3.org/2000/svg"
   xmlns="http://www.w3.org/2000/svg"
   xmlns:sodipodi="http://sodipodi.sourceforge.net/DTD/sodipodi-0.dtd"
   xmlns:inkscape="http://www.inkscape.org/namespaces/inkscape"
   width="210mm"
   height="297mm"
   viewBox="0 0 210 297"
   version="1.1"
   id="svg8"
   inkscape:version="0.92.4 (5da689c313, 2019-01-14)"
   sodipodi:docname="curveyarrow.svg">
  <defs
     id="defs2" />
  <sodipodi:namedview
     id="base"
     pagecolor="#ffffff"
     bordercolor="#666666"
     borderopacity="1.0"
     inkscape:pageopacity="0.0"
     inkscape:pageshadow="2"
     inkscape:zoom="5.6"
     inkscape:cx="231.7311"
     inkscape:cy="583.8417"
     inkscape:document-units="mm"
     inkscape:current-layer="layer1"
     showgrid="false"
     inkscape:window-width="1815"
     inkscape:window-height="1046"
     inkscape:window-x="94"
     inkscape:window-y="-11"
     inkscape:window-maximized="1" />
  <metadata
     id="metadata5">
    <rdf:RDF>
      <cc:Work
         rdf:about="">
        <dc:format>image/svg+xml</dc:format>
        <dc:type
           rdf:resource="http://purl.org/dc/dcmitype/StillImage" />
        <dc:title></dc:title>
      </cc:Work>
    </rdf:RDF>
  </metadata>
  <g
     inkscape:label="Layer 1"
     inkscape:groupmode="layer"
     id="layer1">
    <path
       style="fill:none;stroke:#000000;stroke-width:0.16053422px;stroke-linecap:butt;stroke-linejoin:miter;stroke-opacity:1"
       d="m 48.761244,134.62118 c 0.577574,-1.34291 1.514144,-1.81041 2.707069,-1.76071 0.933063,0.0332 1.903602,0.33283 2.777079,1.76071 0.825128,1.24966 1.71913,1.72109 2.730406,1.65507 0.933217,0.0772 1.861695,-0.50882 2.730405,-1.65507"
       id="path825"
       inkscape:connector-curvature="0"
       sodipodi:nodetypes="ccccc" />
    <path
       style="fill:none;stroke:#000000;stroke-width:0.16053422px;stroke-linecap:butt;stroke-linejoin:miter;stroke-opacity:1"
       d="m 59.706203,134.62118 c 0.577574,-1.34291 1.514144,-1.81041 2.707069,-1.76071 0.933063,0.0332 1.903602,0.33283 2.777079,1.76071 0.825128,1.24966 1.71913,1.72109 2.730406,1.65507 0.933217,0.0772 1.861695,-0.50882 2.730405,-1.65507"
       id="path825-0"
       inkscape:connector-curvature="0"
       sodipodi:nodetypes="ccccc" />
    <path
       style="fill:none;stroke:#000000;stroke-width:0.16053422px;stroke-linecap:butt;stroke-linejoin:miter;stroke-opacity:1"
       d="m 70.651162,134.62118 c 0.577574,-1.34291 1.514144,-1.81041 2.707069,-1.76071 0.933063,0.0332 1.903602,0.33283 2.777079,1.76071 0.825128,1.24966 1.71913,1.72109 2.730406,1.65507 0.933217,0.0772 1.861695,-0.50882 2.730405,-1.65507"
       id="path825-0-5"
       inkscape:connector-curvature="0"
       sodipodi:nodetypes="ccccc" />
  </g>
</svg>
